<svg width="623" height="623" viewBox="0 0 623 623" fill="none" xmlns="http://www.w3.org/2000/svg">
<path d="M402.05 247.55H220.939C187.639 247.55 166.533 283.47 183.285 312.507L295.061 506.241C302.355 518.891 320.634 518.891 327.928 506.241L439.727 312.507C456.457 283.516 435.351 247.55 402.073 247.55H402.05ZM294.971 448.143L270.628 401.032L211.89 295.983C208.016 289.259 212.803 280.643 220.916 280.643H294.948V448.166L294.971 448.143ZM411.053 295.96L352.34 401.055L327.997 448.143V280.621H402.028C410.142 280.621 414.929 289.236 411.053 295.96Z" fill="white"/>
<path d="M311.571 96.9409C311.935 96.321 312.469 95.8041 313.118 95.444C313.767 95.084 314.507 94.894 315.261 94.894C316.015 94.894 316.755 95.084 317.404 95.444C318.053 95.8041 318.587 96.321 318.95 96.9409L343.817 141.256C344.41 142.283 345.237 143.173 346.24 143.863C347.243 144.553 348.396 145.027 349.617 145.249C350.838 145.471 352.096 145.437 353.301 145.149C354.506 144.86 355.628 144.325 356.587 143.581L392.614 114.607C393.306 114.079 394.158 113.771 395.049 113.726C395.939 113.682 396.821 113.904 397.568 114.36C398.316 114.816 398.89 115.483 399.207 116.265C399.525 117.047 399.57 117.904 399.337 118.711L375.464 199.735C374.977 201.393 373.927 202.857 372.474 203.904C371.021 204.951 369.243 205.526 367.411 205.539H263.119C261.286 205.527 259.506 204.954 258.051 203.906C256.596 202.859 255.545 201.394 255.058 199.735L231.194 118.719C230.96 117.912 231.005 117.055 231.323 116.273C231.641 115.491 232.215 114.824 232.962 114.368C233.709 113.912 234.591 113.69 235.482 113.734C236.372 113.778 237.224 114.087 237.916 114.615L273.935 143.589C274.893 144.333 276.016 144.868 277.221 145.156C278.426 145.445 279.684 145.479 280.905 145.257C282.125 145.034 283.279 144.561 284.281 143.871C285.284 143.181 286.112 142.291 286.705 141.264L311.571 96.9409Z" stroke="white" stroke-width="17" stroke-linecap="round" stroke-linejoin="round"/>
<circle cx="311.5" cy="311.5" r="301" stroke="white" stroke-width="21"/>
</svg>
